%
M48
M72
T01C0.01200
T02C0.01378
T03C0.03500
%
T01
X74512Y44700
X74512Y54800
X49112Y63000
X38612Y53500
X32712Y53300
X117512Y43695
X133212Y44600
X138612Y49500
X120823Y58511
X160401Y64211
X172912Y65600
X151512Y84300
X152312Y87800
X151212Y91100
X137812Y87500
X130212Y89300
X126512Y87100
X154012Y100500
X159612Y98200
X169112Y95600
X170612Y92100
X193112Y100500
X196612Y98200
X222712Y102800
X248012Y91500
X248112Y84500
X277212Y89784
X276212Y96500
X294712Y90000
X294712Y85200
X287912Y81500
X283312Y81500
X283612Y76100
X280112Y73800
X280412Y68300
X256512Y55800
X194512Y38800
X191512Y35800
X71512Y99800
X88873Y104900
X113212Y127900
X122912Y127800
X132612Y127800
X159112Y124500
X171112Y124500
X166312Y109900
X152512Y110800
X148512Y110800
X244512Y125800
X254512Y125800
X293912Y106500
X300612Y111600
X55712Y155600
X48112Y148500
X45612Y130900
X39812Y130900
T02
X252925Y59700
X277612Y59700
X283312Y111600
T03
X173624Y13200
X163624Y13200
X153624Y13200
X143624Y13200
M30
