G75*
%MOIN*%
%OFA0B0*%
%FSLAX25Y25*%
%IPPOS*%
%LPD*%
%AMOC8*
5,1,8,0,0,1.08239X$1,22.5*
%
%ADD10C,0.00600*%
%ADD11R,0.06500X0.06500*%
%ADD12C,0.06500*%
%ADD13C,0.02400*%
%ADD14C,0.01200*%
%ADD15C,0.00800*%
%ADD16C,0.02000*%
%ADD17C,0.02578*%
D10*
X0003112Y0018800D02*
X0003112Y0164469D01*
X0314136Y0164469D01*
X0314136Y0018800D01*
X0190812Y0018800D01*
X0179254Y0007200D01*
X0138112Y0007200D01*
X0126612Y0018800D01*
X0003112Y0018800D01*
D11*
X0143624Y0013200D03*
D12*
X0153624Y0013200D03*
X0163624Y0013200D03*
X0173624Y0013200D03*
D13*
X0191512Y0035800D03*
X0194512Y0038800D03*
X0160401Y0064211D03*
X0172912Y0065600D03*
X0151512Y0084300D03*
X0152312Y0087800D03*
X0151212Y0091100D03*
X0137812Y0087500D03*
X0130212Y0089300D03*
X0126512Y0087100D03*
X0154012Y0100500D03*
X0159612Y0098200D03*
X0169112Y0095600D03*
X0170612Y0092100D03*
X0193112Y0100500D03*
X0196612Y0098200D03*
X0222712Y0102800D03*
X0248012Y0091500D03*
X0248112Y0084500D03*
X0277212Y0089784D03*
X0276212Y0096500D03*
X0294712Y0090000D03*
X0294712Y0085200D03*
X0287912Y0081500D03*
X0283312Y0081500D03*
X0283612Y0076100D03*
X0280112Y0073800D03*
X0280412Y0068300D03*
X0256512Y0055800D03*
X0293912Y0106500D03*
X0300612Y0111600D03*
X0254512Y0125800D03*
X0244512Y0125800D03*
X0171112Y0124500D03*
X0159112Y0124500D03*
X0132612Y0127800D03*
X0122912Y0127800D03*
X0113212Y0127900D03*
X0148512Y0110800D03*
X0152512Y0110800D03*
X0166312Y0109900D03*
X0088873Y0104900D03*
X0071512Y0099800D03*
X0045612Y0130900D03*
X0039812Y0130900D03*
X0048112Y0148500D03*
X0055712Y0155600D03*
X0049112Y0063000D03*
X0038612Y0053500D03*
X0032712Y0053300D03*
X0074512Y0054800D03*
X0074512Y0044700D03*
X0117512Y0043695D03*
X0133212Y0044600D03*
X0138612Y0049500D03*
X0120823Y0058511D03*
D14*
X0118417Y0044600D02*
X0117512Y0043695D01*
X0118417Y0044600D02*
X0133212Y0044600D01*
X0160401Y0064211D02*
X0161791Y0065600D01*
X0172912Y0065600D01*
X0157012Y0078500D02*
X0135112Y0078500D01*
X0126512Y0087100D01*
X0130212Y0089300D02*
X0138312Y0081200D01*
X0155312Y0081200D01*
X0169112Y0095000D01*
X0169112Y0095600D01*
X0170612Y0092100D02*
X0157012Y0078500D01*
X0252925Y0059700D02*
X0277612Y0059700D01*
X0283312Y0111600D02*
X0300612Y0111600D01*
D15*
X0299059Y0109900D02*
X0299659Y0109300D01*
X0301565Y0109300D01*
X0302912Y0110647D01*
X0302912Y0112553D01*
X0301565Y0113900D01*
X0299659Y0113900D01*
X0299059Y0113300D01*
X0284991Y0113300D01*
X0284302Y0113989D01*
X0282323Y0113989D01*
X0280923Y0112590D01*
X0280923Y0110610D01*
X0282323Y0109211D01*
X0284302Y0109211D01*
X0284991Y0109900D01*
X0299059Y0109900D01*
X0299550Y0109409D02*
X0284500Y0109409D01*
X0282124Y0109409D02*
X0135024Y0109409D01*
X0135822Y0108611D02*
X0311436Y0108611D01*
X0311436Y0109409D02*
X0301674Y0109409D01*
X0302473Y0110208D02*
X0311436Y0110208D01*
X0311436Y0111006D02*
X0302912Y0111006D01*
X0302912Y0111805D02*
X0311436Y0111805D01*
X0311436Y0112603D02*
X0302861Y0112603D01*
X0302063Y0113402D02*
X0311436Y0113402D01*
X0311436Y0114201D02*
X0134112Y0114201D01*
X0134112Y0114999D02*
X0311436Y0114999D01*
X0311436Y0115798D02*
X0134112Y0115798D01*
X0134112Y0116596D02*
X0311436Y0116596D01*
X0311436Y0117395D02*
X0134112Y0117395D01*
X0134112Y0118193D02*
X0311436Y0118193D01*
X0311436Y0118992D02*
X0134112Y0118992D01*
X0134112Y0119790D02*
X0311436Y0119790D01*
X0311436Y0120589D02*
X0134112Y0120589D01*
X0134112Y0121387D02*
X0311436Y0121387D01*
X0311436Y0122186D02*
X0134112Y0122186D01*
X0134112Y0122984D02*
X0311436Y0122984D01*
X0311436Y0123783D02*
X0134112Y0123783D01*
X0134112Y0124581D02*
X0311436Y0124581D01*
X0311436Y0125380D02*
X0134112Y0125380D01*
X0134112Y0126047D02*
X0134912Y0126847D01*
X0134912Y0128753D01*
X0133565Y0130100D01*
X0131659Y0130100D01*
X0130312Y0128753D01*
X0130312Y0126847D01*
X0131112Y0126047D01*
X0131112Y0109079D01*
X0131991Y0108200D01*
X0148912Y0091279D01*
X0148912Y0090147D01*
X0149759Y0089300D01*
X0149733Y0089300D01*
X0124412Y0114621D01*
X0124412Y0126047D01*
X0125212Y0126847D01*
X0125212Y0128753D01*
X0123865Y0130100D01*
X0121959Y0130100D01*
X0120612Y0128753D01*
X0120612Y0126847D01*
X0121412Y0126047D01*
X0121412Y0113379D01*
X0148491Y0086300D01*
X0150259Y0086300D01*
X0149759Y0085800D01*
X0146933Y0085800D01*
X0114712Y0118021D01*
X0114712Y0126147D01*
X0115512Y0126947D01*
X0115512Y0128853D01*
X0114165Y0130200D01*
X0112259Y0130200D01*
X0110912Y0128853D01*
X0110912Y0126947D01*
X0111712Y0126147D01*
X0111712Y0116779D01*
X0145591Y0082900D01*
X0139016Y0082900D01*
X0132512Y0089404D01*
X0132512Y0090253D01*
X0131165Y0091600D01*
X0129259Y0091600D01*
X0127912Y0090253D01*
X0127912Y0088953D01*
X0127465Y0089400D01*
X0125559Y0089400D01*
X0124212Y0088053D01*
X0124212Y0086147D01*
X0125559Y0084800D01*
X0126408Y0084800D01*
X0133412Y0077796D01*
X0134408Y0076800D01*
X0157716Y0076800D01*
X0158712Y0077796D01*
X0170716Y0089800D01*
X0171565Y0089800D01*
X0172912Y0091147D01*
X0172912Y0093053D01*
X0171565Y0094400D01*
X0171165Y0094400D01*
X0171412Y0094647D01*
X0171412Y0096553D01*
X0171265Y0096700D01*
X0194859Y0096700D01*
X0195659Y0095900D01*
X0197565Y0095900D01*
X0198912Y0097247D01*
X0198912Y0099153D01*
X0197565Y0100500D01*
X0195659Y0100500D01*
X0195412Y0100253D01*
X0195412Y0101453D01*
X0194065Y0102800D01*
X0192159Y0102800D01*
X0191359Y0102000D01*
X0155765Y0102000D01*
X0154965Y0102800D01*
X0153059Y0102800D01*
X0151712Y0101453D01*
X0151712Y0099547D01*
X0153059Y0098200D01*
X0154965Y0098200D01*
X0155765Y0099000D01*
X0157312Y0099000D01*
X0157312Y0097247D01*
X0158659Y0095900D01*
X0160565Y0095900D01*
X0161365Y0096700D01*
X0166959Y0096700D01*
X0166812Y0096553D01*
X0166812Y0095104D01*
X0154608Y0082900D01*
X0153365Y0082900D01*
X0153812Y0083347D01*
X0153812Y0085253D01*
X0153415Y0085650D01*
X0154612Y0086847D01*
X0154612Y0088753D01*
X0153365Y0090000D01*
X0153512Y0090147D01*
X0153512Y0092053D01*
X0152165Y0093400D01*
X0151033Y0093400D01*
X0134112Y0110321D01*
X0134112Y0126047D01*
X0134243Y0126178D02*
X0311436Y0126178D01*
X0311436Y0126977D02*
X0134912Y0126977D01*
X0134912Y0127775D02*
X0311436Y0127775D01*
X0311436Y0128574D02*
X0134912Y0128574D01*
X0134293Y0129372D02*
X0311436Y0129372D01*
X0311436Y0130171D02*
X0114194Y0130171D01*
X0114993Y0129372D02*
X0121232Y0129372D01*
X0120612Y0128574D02*
X0115512Y0128574D01*
X0115512Y0127775D02*
X0120612Y0127775D01*
X0120612Y0126977D02*
X0115512Y0126977D01*
X0114743Y0126178D02*
X0121281Y0126178D01*
X0121412Y0125380D02*
X0114712Y0125380D01*
X0114712Y0124581D02*
X0121412Y0124581D01*
X0121412Y0123783D02*
X0114712Y0123783D01*
X0114712Y0122984D02*
X0121412Y0122984D01*
X0121412Y0122186D02*
X0114712Y0122186D01*
X0114712Y0121387D02*
X0121412Y0121387D01*
X0121412Y0120589D02*
X0114712Y0120589D01*
X0114712Y0119790D02*
X0121412Y0119790D01*
X0121412Y0118992D02*
X0114712Y0118992D01*
X0114712Y0118193D02*
X0121412Y0118193D01*
X0121412Y0117395D02*
X0115339Y0117395D01*
X0116137Y0116596D02*
X0121412Y0116596D01*
X0121412Y0115798D02*
X0116936Y0115798D01*
X0117734Y0114999D02*
X0121412Y0114999D01*
X0121412Y0114201D02*
X0118533Y0114201D01*
X0119331Y0113402D02*
X0121412Y0113402D01*
X0122187Y0112603D02*
X0120130Y0112603D01*
X0120928Y0111805D02*
X0122986Y0111805D01*
X0123784Y0111006D02*
X0121727Y0111006D01*
X0122525Y0110208D02*
X0124583Y0110208D01*
X0125381Y0109409D02*
X0123324Y0109409D01*
X0124122Y0108611D02*
X0126180Y0108611D01*
X0126978Y0107812D02*
X0124921Y0107812D01*
X0125719Y0107014D02*
X0127777Y0107014D01*
X0128575Y0106215D02*
X0126518Y0106215D01*
X0127316Y0105417D02*
X0129374Y0105417D01*
X0130172Y0104618D02*
X0128115Y0104618D01*
X0128914Y0103820D02*
X0130971Y0103820D01*
X0131769Y0103021D02*
X0129712Y0103021D01*
X0130511Y0102223D02*
X0132568Y0102223D01*
X0133366Y0101424D02*
X0131309Y0101424D01*
X0132108Y0100626D02*
X0134165Y0100626D01*
X0134963Y0099827D02*
X0132906Y0099827D01*
X0133705Y0099029D02*
X0135762Y0099029D01*
X0136560Y0098230D02*
X0134503Y0098230D01*
X0135302Y0097432D02*
X0137359Y0097432D01*
X0138157Y0096633D02*
X0136100Y0096633D01*
X0136899Y0095835D02*
X0138956Y0095835D01*
X0139754Y0095036D02*
X0137697Y0095036D01*
X0138496Y0094238D02*
X0140553Y0094238D01*
X0141352Y0093439D02*
X0139294Y0093439D01*
X0140093Y0092641D02*
X0142150Y0092641D01*
X0142949Y0091842D02*
X0140891Y0091842D01*
X0141690Y0091044D02*
X0143747Y0091044D01*
X0144546Y0090245D02*
X0142488Y0090245D01*
X0143287Y0089447D02*
X0145344Y0089447D01*
X0146143Y0088648D02*
X0144085Y0088648D01*
X0144884Y0087850D02*
X0146941Y0087850D01*
X0147740Y0087051D02*
X0145682Y0087051D01*
X0146481Y0086253D02*
X0150212Y0086253D01*
X0149112Y0087800D02*
X0122912Y0114000D01*
X0122912Y0127800D01*
X0124543Y0126178D02*
X0130981Y0126178D01*
X0131112Y0125380D02*
X0124412Y0125380D01*
X0124412Y0124581D02*
X0131112Y0124581D01*
X0131112Y0123783D02*
X0124412Y0123783D01*
X0124412Y0122984D02*
X0131112Y0122984D01*
X0131112Y0122186D02*
X0124412Y0122186D01*
X0124412Y0121387D02*
X0131112Y0121387D01*
X0131112Y0120589D02*
X0124412Y0120589D01*
X0124412Y0119790D02*
X0131112Y0119790D01*
X0131112Y0118992D02*
X0124412Y0118992D01*
X0124412Y0118193D02*
X0131112Y0118193D01*
X0131112Y0117395D02*
X0124412Y0117395D01*
X0124412Y0116596D02*
X0131112Y0116596D01*
X0131112Y0115798D02*
X0124412Y0115798D01*
X0124412Y0114999D02*
X0131112Y0114999D01*
X0131112Y0114201D02*
X0124833Y0114201D01*
X0125631Y0113402D02*
X0131112Y0113402D01*
X0131112Y0112603D02*
X0126430Y0112603D01*
X0127228Y0111805D02*
X0131112Y0111805D01*
X0131112Y0111006D02*
X0128027Y0111006D01*
X0128825Y0110208D02*
X0131112Y0110208D01*
X0131112Y0109409D02*
X0129624Y0109409D01*
X0130422Y0108611D02*
X0131580Y0108611D01*
X0131221Y0107812D02*
X0132378Y0107812D01*
X0132019Y0107014D02*
X0133177Y0107014D01*
X0132818Y0106215D02*
X0133975Y0106215D01*
X0133616Y0105417D02*
X0134774Y0105417D01*
X0134415Y0104618D02*
X0135572Y0104618D01*
X0135214Y0103820D02*
X0136371Y0103820D01*
X0136012Y0103021D02*
X0137169Y0103021D01*
X0136811Y0102223D02*
X0137968Y0102223D01*
X0137609Y0101424D02*
X0138766Y0101424D01*
X0138408Y0100626D02*
X0139565Y0100626D01*
X0139206Y0099827D02*
X0140363Y0099827D01*
X0140005Y0099029D02*
X0141162Y0099029D01*
X0140803Y0098230D02*
X0141960Y0098230D01*
X0141602Y0097432D02*
X0142759Y0097432D01*
X0142400Y0096633D02*
X0143557Y0096633D01*
X0143199Y0095835D02*
X0144356Y0095835D01*
X0143997Y0095036D02*
X0145154Y0095036D01*
X0144796Y0094238D02*
X0145953Y0094238D01*
X0145594Y0093439D02*
X0146752Y0093439D01*
X0146393Y0092641D02*
X0147550Y0092641D01*
X0147191Y0091842D02*
X0148349Y0091842D01*
X0147990Y0091044D02*
X0148912Y0091044D01*
X0148912Y0090245D02*
X0148788Y0090245D01*
X0149587Y0089447D02*
X0149613Y0089447D01*
X0149112Y0087800D02*
X0152312Y0087800D01*
X0153918Y0089447D02*
X0161155Y0089447D01*
X0161953Y0090245D02*
X0153512Y0090245D01*
X0153512Y0091044D02*
X0162752Y0091044D01*
X0163550Y0091842D02*
X0153512Y0091842D01*
X0152924Y0092641D02*
X0164349Y0092641D01*
X0165147Y0093439D02*
X0150994Y0093439D01*
X0150196Y0094238D02*
X0165946Y0094238D01*
X0166744Y0095036D02*
X0149397Y0095036D01*
X0148599Y0095835D02*
X0166812Y0095835D01*
X0166893Y0096633D02*
X0161298Y0096633D01*
X0159612Y0098200D02*
X0196612Y0098200D01*
X0198237Y0099827D02*
X0221212Y0099827D01*
X0221212Y0099029D02*
X0198912Y0099029D01*
X0198912Y0098230D02*
X0221212Y0098230D01*
X0221212Y0097432D02*
X0198912Y0097432D01*
X0198298Y0096633D02*
X0221212Y0096633D01*
X0221212Y0095835D02*
X0171412Y0095835D01*
X0171412Y0095036D02*
X0221212Y0095036D01*
X0221212Y0094238D02*
X0171727Y0094238D01*
X0172526Y0093439D02*
X0221212Y0093439D01*
X0221212Y0092641D02*
X0172912Y0092641D01*
X0172912Y0091842D02*
X0221212Y0091842D01*
X0221212Y0091044D02*
X0172808Y0091044D01*
X0172010Y0090245D02*
X0221212Y0090245D01*
X0221212Y0089447D02*
X0170363Y0089447D01*
X0169564Y0088648D02*
X0221212Y0088648D01*
X0221212Y0087850D02*
X0168766Y0087850D01*
X0167967Y0087051D02*
X0221212Y0087051D01*
X0221212Y0086253D02*
X0167169Y0086253D01*
X0166370Y0085454D02*
X0221212Y0085454D01*
X0221212Y0084656D02*
X0165572Y0084656D01*
X0164773Y0083857D02*
X0221212Y0083857D01*
X0221212Y0083059D02*
X0163975Y0083059D01*
X0163176Y0082260D02*
X0221212Y0082260D01*
X0221212Y0081462D02*
X0162378Y0081462D01*
X0161579Y0080663D02*
X0221212Y0080663D01*
X0221212Y0079865D02*
X0160781Y0079865D01*
X0159982Y0079066D02*
X0221212Y0079066D01*
X0221212Y0078268D02*
X0159184Y0078268D01*
X0158385Y0077469D02*
X0221212Y0077469D01*
X0221212Y0076670D02*
X0105633Y0076670D01*
X0106431Y0075872D02*
X0221212Y0075872D01*
X0221212Y0075421D02*
X0196791Y0051000D01*
X0140365Y0051000D01*
X0139565Y0051800D01*
X0137659Y0051800D01*
X0136312Y0050453D01*
X0136312Y0048547D01*
X0137659Y0047200D01*
X0139565Y0047200D01*
X0140365Y0048000D01*
X0198033Y0048000D01*
X0224212Y0074179D01*
X0224212Y0101047D01*
X0225012Y0101847D01*
X0225012Y0103753D01*
X0223665Y0105100D01*
X0221759Y0105100D01*
X0220412Y0103753D01*
X0220412Y0101847D01*
X0221212Y0101047D01*
X0221212Y0075421D01*
X0220864Y0075073D02*
X0107230Y0075073D01*
X0108028Y0074275D02*
X0220066Y0074275D01*
X0219267Y0073476D02*
X0108827Y0073476D01*
X0109625Y0072678D02*
X0218469Y0072678D01*
X0217670Y0071879D02*
X0110424Y0071879D01*
X0111222Y0071081D02*
X0216872Y0071081D01*
X0216073Y0070282D02*
X0112021Y0070282D01*
X0112819Y0069484D02*
X0215275Y0069484D01*
X0214476Y0068685D02*
X0113618Y0068685D01*
X0114416Y0067887D02*
X0171946Y0067887D01*
X0171959Y0067900D02*
X0171359Y0067300D01*
X0161087Y0067300D01*
X0160297Y0066511D01*
X0159449Y0066511D01*
X0158101Y0065163D01*
X0158101Y0063258D01*
X0159449Y0061911D01*
X0161354Y0061911D01*
X0162701Y0063258D01*
X0162701Y0063900D01*
X0171359Y0063900D01*
X0171959Y0063300D01*
X0173865Y0063300D01*
X0175212Y0064647D01*
X0175212Y0066553D01*
X0173865Y0067900D01*
X0171959Y0067900D01*
X0173878Y0067887D02*
X0213678Y0067887D01*
X0212879Y0067088D02*
X0174676Y0067088D01*
X0175212Y0066290D02*
X0212081Y0066290D01*
X0211282Y0065491D02*
X0175212Y0065491D01*
X0175212Y0064693D02*
X0210484Y0064693D01*
X0209685Y0063894D02*
X0174459Y0063894D01*
X0171365Y0063894D02*
X0162701Y0063894D01*
X0162539Y0063096D02*
X0208887Y0063096D01*
X0208088Y0062297D02*
X0161741Y0062297D01*
X0159062Y0062297D02*
X0120006Y0062297D01*
X0120804Y0061499D02*
X0207290Y0061499D01*
X0206491Y0060700D02*
X0121886Y0060700D01*
X0121775Y0060811D02*
X0121493Y0060811D01*
X0090973Y0091330D01*
X0090973Y0103747D01*
X0091173Y0103947D01*
X0091173Y0105853D01*
X0089825Y0107200D01*
X0087920Y0107200D01*
X0086573Y0105853D01*
X0086573Y0103947D01*
X0086773Y0103747D01*
X0086773Y0089591D01*
X0118523Y0057841D01*
X0118523Y0057558D01*
X0119870Y0056211D01*
X0121775Y0056211D01*
X0123123Y0057558D01*
X0123123Y0059463D01*
X0121775Y0060811D01*
X0122684Y0059902D02*
X0205692Y0059902D01*
X0204894Y0059103D02*
X0123123Y0059103D01*
X0123123Y0058305D02*
X0204095Y0058305D01*
X0203297Y0057506D02*
X0123071Y0057506D01*
X0122272Y0056708D02*
X0202498Y0056708D01*
X0201700Y0055909D02*
X0005812Y0055909D01*
X0005812Y0055111D02*
X0200901Y0055111D01*
X0200103Y0054312D02*
X0005812Y0054312D01*
X0005812Y0053514D02*
X0199304Y0053514D01*
X0198506Y0052715D02*
X0005812Y0052715D01*
X0005812Y0051917D02*
X0197707Y0051917D01*
X0196909Y0051118D02*
X0140247Y0051118D01*
X0138612Y0049500D02*
X0197412Y0049500D01*
X0222712Y0074800D01*
X0222712Y0102800D01*
X0220412Y0103021D02*
X0141412Y0103021D01*
X0142211Y0102223D02*
X0152482Y0102223D01*
X0151712Y0101424D02*
X0143009Y0101424D01*
X0143808Y0100626D02*
X0151712Y0100626D01*
X0151712Y0099827D02*
X0144606Y0099827D01*
X0145405Y0099029D02*
X0152231Y0099029D01*
X0153029Y0098230D02*
X0146203Y0098230D01*
X0147002Y0097432D02*
X0157312Y0097432D01*
X0157312Y0098230D02*
X0154995Y0098230D01*
X0154012Y0100500D02*
X0193112Y0100500D01*
X0195412Y0100626D02*
X0221212Y0100626D01*
X0220835Y0101424D02*
X0195412Y0101424D01*
X0194642Y0102223D02*
X0220412Y0102223D01*
X0220479Y0103820D02*
X0140614Y0103820D01*
X0139815Y0104618D02*
X0221278Y0104618D01*
X0224146Y0104618D02*
X0311436Y0104618D01*
X0311436Y0103820D02*
X0224945Y0103820D01*
X0225012Y0103021D02*
X0311436Y0103021D01*
X0311436Y0102223D02*
X0225012Y0102223D01*
X0224589Y0101424D02*
X0311436Y0101424D01*
X0311436Y0100626D02*
X0224212Y0100626D01*
X0224212Y0099827D02*
X0311436Y0099827D01*
X0311436Y0099029D02*
X0224212Y0099029D01*
X0224212Y0098230D02*
X0311436Y0098230D01*
X0311436Y0097432D02*
X0224212Y0097432D01*
X0224212Y0096633D02*
X0311436Y0096633D01*
X0311436Y0095835D02*
X0224212Y0095835D01*
X0224212Y0095036D02*
X0311436Y0095036D01*
X0311436Y0094238D02*
X0224212Y0094238D01*
X0224212Y0093439D02*
X0246699Y0093439D01*
X0247059Y0093800D02*
X0245712Y0092453D01*
X0245712Y0090547D01*
X0246512Y0089747D01*
X0246512Y0086153D01*
X0245812Y0085453D01*
X0245812Y0083547D01*
X0247159Y0082200D01*
X0249065Y0082200D01*
X0250412Y0083547D01*
X0250412Y0085453D01*
X0249512Y0086353D01*
X0249512Y0089747D01*
X0250312Y0090547D01*
X0250312Y0092453D01*
X0248965Y0093800D01*
X0247059Y0093800D01*
X0245900Y0092641D02*
X0224212Y0092641D01*
X0224212Y0091842D02*
X0245712Y0091842D01*
X0245712Y0091044D02*
X0224212Y0091044D01*
X0224212Y0090245D02*
X0246014Y0090245D01*
X0246512Y0089447D02*
X0224212Y0089447D01*
X0224212Y0088648D02*
X0246512Y0088648D01*
X0246512Y0087850D02*
X0224212Y0087850D01*
X0224212Y0087051D02*
X0246512Y0087051D01*
X0246512Y0086253D02*
X0224212Y0086253D01*
X0224212Y0085454D02*
X0245813Y0085454D01*
X0245812Y0084656D02*
X0224212Y0084656D01*
X0224212Y0083857D02*
X0245812Y0083857D01*
X0246301Y0083059D02*
X0224212Y0083059D01*
X0224212Y0082260D02*
X0247099Y0082260D01*
X0249125Y0082260D02*
X0278612Y0082260D01*
X0278612Y0081462D02*
X0224212Y0081462D01*
X0224212Y0080663D02*
X0278612Y0080663D01*
X0278612Y0079865D02*
X0224212Y0079865D01*
X0224212Y0079066D02*
X0278612Y0079066D01*
X0278612Y0078268D02*
X0224212Y0078268D01*
X0224212Y0077469D02*
X0278612Y0077469D01*
X0278612Y0076670D02*
X0224212Y0076670D01*
X0224212Y0075872D02*
X0278612Y0075872D01*
X0278612Y0075553D02*
X0277812Y0074753D01*
X0277812Y0072847D01*
X0279159Y0071500D01*
X0281065Y0071500D01*
X0282112Y0072547D01*
X0282112Y0072121D01*
X0280591Y0070600D01*
X0279459Y0070600D01*
X0278112Y0069253D01*
X0278112Y0067347D01*
X0279459Y0066000D01*
X0281365Y0066000D01*
X0282712Y0067347D01*
X0282712Y0068479D01*
X0284233Y0070000D01*
X0285112Y0070879D01*
X0285112Y0074347D01*
X0285912Y0075147D01*
X0285912Y0077053D01*
X0284565Y0078400D01*
X0282659Y0078400D01*
X0281612Y0077353D01*
X0281612Y0087506D01*
X0279512Y0089606D01*
X0279512Y0090737D01*
X0278165Y0092084D01*
X0276259Y0092084D01*
X0274912Y0090737D01*
X0274912Y0088832D01*
X0276259Y0087484D01*
X0277391Y0087484D01*
X0278612Y0086263D01*
X0278612Y0075553D01*
X0278133Y0075073D02*
X0224212Y0075073D01*
X0224212Y0074275D02*
X0277812Y0074275D01*
X0277812Y0073476D02*
X0223510Y0073476D01*
X0222711Y0072678D02*
X0277981Y0072678D01*
X0278780Y0071879D02*
X0221913Y0071879D01*
X0221114Y0071081D02*
X0281072Y0071081D01*
X0281444Y0071879D02*
X0281870Y0071879D01*
X0283612Y0071500D02*
X0283612Y0076100D01*
X0285912Y0075872D02*
X0311436Y0075872D01*
X0311436Y0076670D02*
X0285912Y0076670D01*
X0285496Y0077469D02*
X0311436Y0077469D01*
X0311436Y0078268D02*
X0284697Y0078268D01*
X0282527Y0078268D02*
X0281612Y0078268D01*
X0281612Y0079066D02*
X0311436Y0079066D01*
X0311436Y0079865D02*
X0281612Y0079865D01*
X0281612Y0080663D02*
X0311436Y0080663D01*
X0311436Y0081462D02*
X0281612Y0081462D01*
X0281612Y0082260D02*
X0311436Y0082260D01*
X0311436Y0083059D02*
X0281612Y0083059D01*
X0281612Y0083857D02*
X0311436Y0083857D01*
X0311436Y0084656D02*
X0281612Y0084656D01*
X0281612Y0085454D02*
X0311436Y0085454D01*
X0311436Y0086253D02*
X0281612Y0086253D01*
X0281612Y0087051D02*
X0311436Y0087051D01*
X0311436Y0087850D02*
X0281268Y0087850D01*
X0280469Y0088648D02*
X0311436Y0088648D01*
X0311436Y0089447D02*
X0279671Y0089447D01*
X0279512Y0090245D02*
X0311436Y0090245D01*
X0311436Y0091044D02*
X0279205Y0091044D01*
X0278407Y0091842D02*
X0311436Y0091842D01*
X0311436Y0092641D02*
X0250124Y0092641D01*
X0250312Y0091842D02*
X0276017Y0091842D01*
X0275219Y0091044D02*
X0250312Y0091044D01*
X0250010Y0090245D02*
X0274912Y0090245D01*
X0274912Y0089447D02*
X0249512Y0089447D01*
X0249512Y0088648D02*
X0275095Y0088648D01*
X0275894Y0087850D02*
X0249512Y0087850D01*
X0249512Y0087051D02*
X0277824Y0087051D01*
X0278612Y0086253D02*
X0249612Y0086253D01*
X0250411Y0085454D02*
X0278612Y0085454D01*
X0278612Y0084656D02*
X0250412Y0084656D01*
X0250412Y0083857D02*
X0278612Y0083857D01*
X0278612Y0083059D02*
X0249923Y0083059D01*
X0248112Y0084500D02*
X0248012Y0084600D01*
X0248012Y0091500D01*
X0249326Y0093439D02*
X0311436Y0093439D01*
X0311436Y0105417D02*
X0139016Y0105417D01*
X0138218Y0106215D02*
X0311436Y0106215D01*
X0311436Y0107014D02*
X0137419Y0107014D01*
X0136621Y0107812D02*
X0311436Y0107812D01*
X0299161Y0113402D02*
X0284889Y0113402D01*
X0281736Y0113402D02*
X0134112Y0113402D01*
X0134112Y0112603D02*
X0280937Y0112603D01*
X0280923Y0111805D02*
X0134112Y0111805D01*
X0134112Y0111006D02*
X0280923Y0111006D01*
X0281326Y0110208D02*
X0134225Y0110208D01*
X0132612Y0109700D02*
X0132612Y0127800D01*
X0130312Y0127775D02*
X0125212Y0127775D01*
X0125212Y0126977D02*
X0130312Y0126977D01*
X0130312Y0128574D02*
X0125212Y0128574D01*
X0124593Y0129372D02*
X0130932Y0129372D01*
X0113212Y0127900D02*
X0113212Y0117400D01*
X0146312Y0084300D01*
X0151512Y0084300D01*
X0153812Y0084656D02*
X0156364Y0084656D01*
X0157162Y0085454D02*
X0153611Y0085454D01*
X0154017Y0086253D02*
X0157961Y0086253D01*
X0158759Y0087051D02*
X0154612Y0087051D01*
X0154612Y0087850D02*
X0159558Y0087850D01*
X0160356Y0088648D02*
X0154612Y0088648D01*
X0151212Y0091100D02*
X0132612Y0109700D01*
X0123872Y0104618D02*
X0091173Y0104618D01*
X0091173Y0105417D02*
X0123074Y0105417D01*
X0122275Y0106215D02*
X0090810Y0106215D01*
X0090011Y0107014D02*
X0121477Y0107014D01*
X0120678Y0107812D02*
X0005812Y0107812D01*
X0005812Y0107014D02*
X0087734Y0107014D01*
X0086935Y0106215D02*
X0005812Y0106215D01*
X0005812Y0105417D02*
X0086573Y0105417D01*
X0086573Y0104618D02*
X0005812Y0104618D01*
X0005812Y0103820D02*
X0086700Y0103820D01*
X0086773Y0103021D02*
X0005812Y0103021D01*
X0005812Y0102223D02*
X0086773Y0102223D01*
X0086773Y0101424D02*
X0005812Y0101424D01*
X0005812Y0100626D02*
X0086773Y0100626D01*
X0086773Y0099827D02*
X0005812Y0099827D01*
X0005812Y0099029D02*
X0086773Y0099029D01*
X0086773Y0098230D02*
X0005812Y0098230D01*
X0005812Y0097432D02*
X0086773Y0097432D01*
X0086773Y0096633D02*
X0005812Y0096633D01*
X0005812Y0095835D02*
X0086773Y0095835D01*
X0086773Y0095036D02*
X0005812Y0095036D01*
X0005812Y0094238D02*
X0086773Y0094238D01*
X0086773Y0093439D02*
X0005812Y0093439D01*
X0005812Y0092641D02*
X0086773Y0092641D01*
X0086773Y0091842D02*
X0005812Y0091842D01*
X0005812Y0091044D02*
X0086773Y0091044D01*
X0086773Y0090245D02*
X0005812Y0090245D01*
X0005812Y0089447D02*
X0086917Y0089447D01*
X0087715Y0088648D02*
X0005812Y0088648D01*
X0005812Y0087850D02*
X0088514Y0087850D01*
X0089312Y0087051D02*
X0005812Y0087051D01*
X0005812Y0086253D02*
X0090111Y0086253D01*
X0090909Y0085454D02*
X0005812Y0085454D01*
X0005812Y0084656D02*
X0091708Y0084656D01*
X0092506Y0083857D02*
X0005812Y0083857D01*
X0005812Y0083059D02*
X0093305Y0083059D01*
X0094103Y0082260D02*
X0005812Y0082260D01*
X0005812Y0081462D02*
X0094902Y0081462D01*
X0095700Y0080663D02*
X0005812Y0080663D01*
X0005812Y0079865D02*
X0096499Y0079865D01*
X0097297Y0079066D02*
X0005812Y0079066D01*
X0005812Y0078268D02*
X0098096Y0078268D01*
X0098894Y0077469D02*
X0005812Y0077469D01*
X0005812Y0076670D02*
X0099693Y0076670D01*
X0100491Y0075872D02*
X0005812Y0075872D01*
X0005812Y0075073D02*
X0101290Y0075073D01*
X0102089Y0074275D02*
X0005812Y0074275D01*
X0005812Y0073476D02*
X0102887Y0073476D01*
X0103686Y0072678D02*
X0005812Y0072678D01*
X0005812Y0071879D02*
X0104484Y0071879D01*
X0105283Y0071081D02*
X0005812Y0071081D01*
X0005812Y0070282D02*
X0106081Y0070282D01*
X0106880Y0069484D02*
X0005812Y0069484D01*
X0005812Y0068685D02*
X0107678Y0068685D01*
X0108477Y0067887D02*
X0005812Y0067887D01*
X0005812Y0067088D02*
X0109275Y0067088D01*
X0110074Y0066290D02*
X0005812Y0066290D01*
X0005812Y0065491D02*
X0110872Y0065491D01*
X0111671Y0064693D02*
X0005812Y0064693D01*
X0005812Y0063894D02*
X0112469Y0063894D01*
X0113268Y0063096D02*
X0005812Y0063096D01*
X0005812Y0062297D02*
X0114066Y0062297D01*
X0114865Y0061499D02*
X0005812Y0061499D01*
X0005812Y0060700D02*
X0115663Y0060700D01*
X0116462Y0059902D02*
X0005812Y0059902D01*
X0005812Y0059103D02*
X0117260Y0059103D01*
X0118059Y0058305D02*
X0005812Y0058305D01*
X0005812Y0057506D02*
X0118574Y0057506D01*
X0119373Y0056708D02*
X0005812Y0056708D01*
X0005812Y0051118D02*
X0136978Y0051118D01*
X0136312Y0050320D02*
X0005812Y0050320D01*
X0005812Y0049521D02*
X0136312Y0049521D01*
X0136312Y0048723D02*
X0005812Y0048723D01*
X0005812Y0047924D02*
X0136935Y0047924D01*
X0134738Y0046327D02*
X0311436Y0046327D01*
X0311436Y0045529D02*
X0135512Y0045529D01*
X0135512Y0045553D02*
X0134165Y0046900D01*
X0132259Y0046900D01*
X0131659Y0046300D01*
X0117713Y0046300D01*
X0117408Y0045995D01*
X0116559Y0045995D01*
X0115212Y0044648D01*
X0115212Y0042743D01*
X0116559Y0041395D01*
X0118465Y0041395D01*
X0119812Y0042743D01*
X0119812Y0042900D01*
X0131659Y0042900D01*
X0132259Y0042300D01*
X0134165Y0042300D01*
X0135512Y0043647D01*
X0135512Y0045553D01*
X0135512Y0044730D02*
X0311436Y0044730D01*
X0311436Y0043932D02*
X0135512Y0043932D01*
X0134998Y0043133D02*
X0311436Y0043133D01*
X0311436Y0042334D02*
X0134199Y0042334D01*
X0132225Y0042334D02*
X0119404Y0042334D01*
X0118605Y0041536D02*
X0311436Y0041536D01*
X0311436Y0040737D02*
X0005812Y0040737D01*
X0005812Y0039939D02*
X0311436Y0039939D01*
X0311436Y0039140D02*
X0005812Y0039140D01*
X0005812Y0038342D02*
X0311436Y0038342D01*
X0311436Y0037543D02*
X0005812Y0037543D01*
X0005812Y0036745D02*
X0311436Y0036745D01*
X0311436Y0035946D02*
X0005812Y0035946D01*
X0005812Y0035148D02*
X0311436Y0035148D01*
X0311436Y0034349D02*
X0005812Y0034349D01*
X0005812Y0033551D02*
X0311436Y0033551D01*
X0311436Y0032752D02*
X0005812Y0032752D01*
X0005812Y0031954D02*
X0311436Y0031954D01*
X0311436Y0031155D02*
X0005812Y0031155D01*
X0005812Y0030357D02*
X0311436Y0030357D01*
X0311436Y0029558D02*
X0005812Y0029558D01*
X0005812Y0028760D02*
X0311436Y0028760D01*
X0311436Y0027961D02*
X0005812Y0027961D01*
X0005812Y0027163D02*
X0311436Y0027163D01*
X0311436Y0026364D02*
X0005812Y0026364D01*
X0005812Y0025566D02*
X0311436Y0025566D01*
X0311436Y0024767D02*
X0005812Y0024767D01*
X0005812Y0023969D02*
X0311436Y0023969D01*
X0311436Y0023170D02*
X0005812Y0023170D01*
X0005812Y0022372D02*
X0311436Y0022372D01*
X0311436Y0021573D02*
X0005812Y0021573D01*
X0005812Y0021500D02*
X0005812Y0161769D01*
X0311436Y0161769D01*
X0311436Y0021500D01*
X0191347Y0021500D01*
X0191344Y0021501D01*
X0190810Y0021500D01*
X0190275Y0021500D01*
X0190273Y0021499D01*
X0190270Y0021499D01*
X0189775Y0021293D01*
X0189283Y0021089D01*
X0189281Y0021087D01*
X0189279Y0021086D01*
X0188900Y0020706D01*
X0188523Y0020329D01*
X0188522Y0020327D01*
X0178133Y0009900D01*
X0176476Y0009900D01*
X0177312Y0010736D01*
X0177974Y0012335D01*
X0177974Y0014065D01*
X0177312Y0015664D01*
X0176088Y0016888D01*
X0174489Y0017550D01*
X0172759Y0017550D01*
X0171160Y0016888D01*
X0169936Y0015664D01*
X0169274Y0014065D01*
X0169274Y0012335D01*
X0169936Y0010736D01*
X0170772Y0009900D01*
X0166476Y0009900D01*
X0167312Y0010736D01*
X0167974Y0012335D01*
X0167974Y0014065D01*
X0167312Y0015664D01*
X0166088Y0016888D01*
X0164489Y0017550D01*
X0162759Y0017550D01*
X0161160Y0016888D01*
X0159936Y0015664D01*
X0159274Y0014065D01*
X0159274Y0012335D01*
X0159936Y0010736D01*
X0160772Y0009900D01*
X0156476Y0009900D01*
X0157312Y0010736D01*
X0157974Y0012335D01*
X0157974Y0014065D01*
X0157312Y0015664D01*
X0156088Y0016888D01*
X0154489Y0017550D01*
X0152759Y0017550D01*
X0151160Y0016888D01*
X0149936Y0015664D01*
X0149274Y0014065D01*
X0149274Y0012335D01*
X0149936Y0010736D01*
X0150772Y0009900D01*
X0139237Y0009900D01*
X0128903Y0020324D01*
X0128901Y0020329D01*
X0128525Y0020705D01*
X0128151Y0021082D01*
X0128146Y0021085D01*
X0128141Y0021089D01*
X0127651Y0021292D01*
X0127161Y0021498D01*
X0127155Y0021498D01*
X0127149Y0021500D01*
X0126618Y0021500D01*
X0126087Y0021502D01*
X0126081Y0021500D01*
X0005812Y0021500D01*
X0005812Y0041536D02*
X0116419Y0041536D01*
X0115620Y0042334D02*
X0005812Y0042334D01*
X0005812Y0043133D02*
X0115212Y0043133D01*
X0115212Y0043932D02*
X0005812Y0043932D01*
X0005812Y0044730D02*
X0115294Y0044730D01*
X0116093Y0045529D02*
X0005812Y0045529D01*
X0005812Y0046327D02*
X0131686Y0046327D01*
X0140289Y0047924D02*
X0311436Y0047924D01*
X0311436Y0047126D02*
X0005812Y0047126D01*
X0091259Y0091044D02*
X0128703Y0091044D01*
X0127912Y0090245D02*
X0092058Y0090245D01*
X0092856Y0089447D02*
X0127912Y0089447D01*
X0124808Y0088648D02*
X0093655Y0088648D01*
X0094454Y0087850D02*
X0124212Y0087850D01*
X0124212Y0087051D02*
X0095252Y0087051D01*
X0096051Y0086253D02*
X0124212Y0086253D01*
X0124905Y0085454D02*
X0096849Y0085454D01*
X0097648Y0084656D02*
X0126552Y0084656D01*
X0127351Y0083857D02*
X0098446Y0083857D01*
X0099245Y0083059D02*
X0128149Y0083059D01*
X0128948Y0082260D02*
X0100043Y0082260D01*
X0100842Y0081462D02*
X0129746Y0081462D01*
X0130545Y0080663D02*
X0101640Y0080663D01*
X0102439Y0079865D02*
X0131343Y0079865D01*
X0132142Y0079066D02*
X0103237Y0079066D01*
X0104036Y0078268D02*
X0132940Y0078268D01*
X0133739Y0077469D02*
X0104834Y0077469D01*
X0115215Y0067088D02*
X0160875Y0067088D01*
X0159228Y0066290D02*
X0116013Y0066290D01*
X0116812Y0065491D02*
X0158429Y0065491D01*
X0158101Y0064693D02*
X0117610Y0064693D01*
X0118409Y0063894D02*
X0158101Y0063894D01*
X0158264Y0063096D02*
X0119207Y0063096D01*
X0138858Y0083059D02*
X0145432Y0083059D01*
X0144634Y0083857D02*
X0138059Y0083857D01*
X0137261Y0084656D02*
X0143835Y0084656D01*
X0143037Y0085454D02*
X0136462Y0085454D01*
X0135664Y0086253D02*
X0142238Y0086253D01*
X0141440Y0087051D02*
X0134865Y0087051D01*
X0134067Y0087850D02*
X0140641Y0087850D01*
X0139843Y0088648D02*
X0133268Y0088648D01*
X0132512Y0089447D02*
X0139044Y0089447D01*
X0138246Y0090245D02*
X0132512Y0090245D01*
X0131721Y0091044D02*
X0137447Y0091044D01*
X0136649Y0091842D02*
X0090973Y0091842D01*
X0090973Y0092641D02*
X0135850Y0092641D01*
X0135052Y0093439D02*
X0090973Y0093439D01*
X0090973Y0094238D02*
X0134253Y0094238D01*
X0133454Y0095036D02*
X0090973Y0095036D01*
X0090973Y0095835D02*
X0132656Y0095835D01*
X0131857Y0096633D02*
X0090973Y0096633D01*
X0090973Y0097432D02*
X0131059Y0097432D01*
X0130260Y0098230D02*
X0090973Y0098230D01*
X0090973Y0099029D02*
X0129462Y0099029D01*
X0128663Y0099827D02*
X0090973Y0099827D01*
X0090973Y0100626D02*
X0127865Y0100626D01*
X0127066Y0101424D02*
X0090973Y0101424D01*
X0090973Y0102223D02*
X0126268Y0102223D01*
X0125469Y0103021D02*
X0090973Y0103021D01*
X0091045Y0103820D02*
X0124671Y0103820D01*
X0119880Y0108611D02*
X0005812Y0108611D01*
X0005812Y0109409D02*
X0119081Y0109409D01*
X0118283Y0110208D02*
X0005812Y0110208D01*
X0005812Y0111006D02*
X0117484Y0111006D01*
X0116686Y0111805D02*
X0005812Y0111805D01*
X0005812Y0112603D02*
X0115887Y0112603D01*
X0115089Y0113402D02*
X0005812Y0113402D01*
X0005812Y0114201D02*
X0114290Y0114201D01*
X0113492Y0114999D02*
X0005812Y0114999D01*
X0005812Y0115798D02*
X0112693Y0115798D01*
X0111895Y0116596D02*
X0005812Y0116596D01*
X0005812Y0117395D02*
X0111712Y0117395D01*
X0111712Y0118193D02*
X0005812Y0118193D01*
X0005812Y0118992D02*
X0111712Y0118992D01*
X0111712Y0119790D02*
X0005812Y0119790D01*
X0005812Y0120589D02*
X0111712Y0120589D01*
X0111712Y0121387D02*
X0005812Y0121387D01*
X0005812Y0122186D02*
X0111712Y0122186D01*
X0111712Y0122984D02*
X0005812Y0122984D01*
X0005812Y0123783D02*
X0111712Y0123783D01*
X0111712Y0124581D02*
X0005812Y0124581D01*
X0005812Y0125380D02*
X0111712Y0125380D01*
X0111681Y0126178D02*
X0005812Y0126178D01*
X0005812Y0126977D02*
X0110912Y0126977D01*
X0110912Y0127775D02*
X0005812Y0127775D01*
X0005812Y0128574D02*
X0110912Y0128574D01*
X0111432Y0129372D02*
X0005812Y0129372D01*
X0005812Y0130171D02*
X0112230Y0130171D01*
X0155542Y0102223D02*
X0191582Y0102223D01*
X0194926Y0096633D02*
X0171331Y0096633D01*
X0157926Y0096633D02*
X0147800Y0096633D01*
X0153812Y0083857D02*
X0155565Y0083857D01*
X0154766Y0083059D02*
X0153523Y0083059D01*
X0205144Y0055111D02*
X0311436Y0055111D01*
X0311436Y0055909D02*
X0205943Y0055909D01*
X0206741Y0056708D02*
X0311436Y0056708D01*
X0311436Y0057506D02*
X0278797Y0057506D01*
X0278602Y0057311D02*
X0280001Y0058710D01*
X0280001Y0060690D01*
X0278602Y0062089D01*
X0276623Y0062089D01*
X0275934Y0061400D01*
X0254604Y0061400D01*
X0253915Y0062089D01*
X0251936Y0062089D01*
X0250536Y0060690D01*
X0250536Y0058710D01*
X0251936Y0057311D01*
X0253915Y0057311D01*
X0254604Y0058000D01*
X0275934Y0058000D01*
X0276623Y0057311D01*
X0278602Y0057311D01*
X0279595Y0058305D02*
X0311436Y0058305D01*
X0311436Y0059103D02*
X0280001Y0059103D01*
X0280001Y0059902D02*
X0311436Y0059902D01*
X0311436Y0060700D02*
X0279990Y0060700D01*
X0279192Y0061499D02*
X0311436Y0061499D01*
X0311436Y0062297D02*
X0212331Y0062297D01*
X0213129Y0063096D02*
X0311436Y0063096D01*
X0311436Y0063894D02*
X0213928Y0063894D01*
X0214726Y0064693D02*
X0311436Y0064693D01*
X0311436Y0065491D02*
X0215525Y0065491D01*
X0216323Y0066290D02*
X0279170Y0066290D01*
X0278371Y0067088D02*
X0217122Y0067088D01*
X0217920Y0067887D02*
X0278112Y0067887D01*
X0278112Y0068685D02*
X0218719Y0068685D01*
X0219517Y0069484D02*
X0278343Y0069484D01*
X0279142Y0070282D02*
X0220316Y0070282D01*
X0211532Y0061499D02*
X0251346Y0061499D01*
X0250547Y0060700D02*
X0210734Y0060700D01*
X0209935Y0059902D02*
X0250536Y0059902D01*
X0250536Y0059103D02*
X0209137Y0059103D01*
X0208338Y0058305D02*
X0250942Y0058305D01*
X0251741Y0057506D02*
X0207540Y0057506D01*
X0204346Y0054312D02*
X0311436Y0054312D01*
X0311436Y0053514D02*
X0203547Y0053514D01*
X0202749Y0052715D02*
X0311436Y0052715D01*
X0311436Y0051917D02*
X0201950Y0051917D01*
X0201152Y0051118D02*
X0311436Y0051118D01*
X0311436Y0050320D02*
X0200353Y0050320D01*
X0199554Y0049521D02*
X0311436Y0049521D01*
X0311436Y0048723D02*
X0198756Y0048723D01*
X0188968Y0020775D02*
X0128456Y0020775D01*
X0129248Y0019976D02*
X0188173Y0019976D01*
X0187377Y0019178D02*
X0130040Y0019178D01*
X0130831Y0018379D02*
X0186581Y0018379D01*
X0185786Y0017581D02*
X0131623Y0017581D01*
X0132414Y0016782D02*
X0151054Y0016782D01*
X0150256Y0015984D02*
X0133206Y0015984D01*
X0133998Y0015185D02*
X0149738Y0015185D01*
X0149407Y0014387D02*
X0134789Y0014387D01*
X0135581Y0013588D02*
X0149274Y0013588D01*
X0149274Y0012790D02*
X0136373Y0012790D01*
X0137164Y0011991D02*
X0149416Y0011991D01*
X0149747Y0011193D02*
X0137956Y0011193D01*
X0138748Y0010394D02*
X0150278Y0010394D01*
X0156970Y0010394D02*
X0160278Y0010394D01*
X0159747Y0011193D02*
X0157501Y0011193D01*
X0157832Y0011991D02*
X0159416Y0011991D01*
X0159274Y0012790D02*
X0157974Y0012790D01*
X0157974Y0013588D02*
X0159274Y0013588D01*
X0159407Y0014387D02*
X0157841Y0014387D01*
X0157510Y0015185D02*
X0159738Y0015185D01*
X0160256Y0015984D02*
X0156992Y0015984D01*
X0156194Y0016782D02*
X0161054Y0016782D01*
X0166194Y0016782D02*
X0171054Y0016782D01*
X0170256Y0015984D02*
X0166992Y0015984D01*
X0167510Y0015185D02*
X0169738Y0015185D01*
X0169407Y0014387D02*
X0167841Y0014387D01*
X0167974Y0013588D02*
X0169274Y0013588D01*
X0169274Y0012790D02*
X0167974Y0012790D01*
X0167832Y0011991D02*
X0169416Y0011991D01*
X0169747Y0011193D02*
X0167501Y0011193D01*
X0166970Y0010394D02*
X0170278Y0010394D01*
X0176970Y0010394D02*
X0178625Y0010394D01*
X0179420Y0011193D02*
X0177501Y0011193D01*
X0177832Y0011991D02*
X0180216Y0011991D01*
X0181012Y0012790D02*
X0177974Y0012790D01*
X0177974Y0013588D02*
X0181807Y0013588D01*
X0182603Y0014387D02*
X0177841Y0014387D01*
X0177510Y0015185D02*
X0183399Y0015185D01*
X0184194Y0015984D02*
X0176992Y0015984D01*
X0176194Y0016782D02*
X0184990Y0016782D01*
X0254110Y0057506D02*
X0276427Y0057506D01*
X0276032Y0061499D02*
X0254505Y0061499D01*
X0280412Y0068300D02*
X0283612Y0071500D01*
X0284516Y0070282D02*
X0311436Y0070282D01*
X0311436Y0069484D02*
X0283717Y0069484D01*
X0282919Y0068685D02*
X0311436Y0068685D01*
X0311436Y0067887D02*
X0282712Y0067887D01*
X0282453Y0067088D02*
X0311436Y0067088D01*
X0311436Y0066290D02*
X0281655Y0066290D01*
X0285112Y0071081D02*
X0311436Y0071081D01*
X0311436Y0071879D02*
X0285112Y0071879D01*
X0285112Y0072678D02*
X0311436Y0072678D01*
X0311436Y0073476D02*
X0285112Y0073476D01*
X0285112Y0074275D02*
X0311436Y0074275D01*
X0311436Y0075073D02*
X0285838Y0075073D01*
X0281728Y0077469D02*
X0281612Y0077469D01*
X0280112Y0073800D02*
X0280112Y0086884D01*
X0277212Y0089784D01*
X0311436Y0130969D02*
X0005812Y0130969D01*
X0005812Y0131768D02*
X0311436Y0131768D01*
X0311436Y0132566D02*
X0005812Y0132566D01*
X0005812Y0133365D02*
X0311436Y0133365D01*
X0311436Y0134163D02*
X0005812Y0134163D01*
X0005812Y0134962D02*
X0311436Y0134962D01*
X0311436Y0135760D02*
X0005812Y0135760D01*
X0005812Y0136559D02*
X0311436Y0136559D01*
X0311436Y0137357D02*
X0005812Y0137357D01*
X0005812Y0138156D02*
X0311436Y0138156D01*
X0311436Y0138954D02*
X0005812Y0138954D01*
X0005812Y0139753D02*
X0311436Y0139753D01*
X0311436Y0140551D02*
X0005812Y0140551D01*
X0005812Y0141350D02*
X0311436Y0141350D01*
X0311436Y0142148D02*
X0005812Y0142148D01*
X0005812Y0142947D02*
X0311436Y0142947D01*
X0311436Y0143745D02*
X0005812Y0143745D01*
X0005812Y0144544D02*
X0311436Y0144544D01*
X0311436Y0145342D02*
X0005812Y0145342D01*
X0005812Y0146141D02*
X0311436Y0146141D01*
X0311436Y0146939D02*
X0005812Y0146939D01*
X0005812Y0147738D02*
X0311436Y0147738D01*
X0311436Y0148537D02*
X0005812Y0148537D01*
X0005812Y0149335D02*
X0311436Y0149335D01*
X0311436Y0150134D02*
X0005812Y0150134D01*
X0005812Y0150932D02*
X0311436Y0150932D01*
X0311436Y0151731D02*
X0005812Y0151731D01*
X0005812Y0152529D02*
X0311436Y0152529D01*
X0311436Y0153328D02*
X0005812Y0153328D01*
X0005812Y0154126D02*
X0311436Y0154126D01*
X0311436Y0154925D02*
X0005812Y0154925D01*
X0005812Y0155723D02*
X0311436Y0155723D01*
X0311436Y0156522D02*
X0005812Y0156522D01*
X0005812Y0157320D02*
X0311436Y0157320D01*
X0311436Y0158119D02*
X0005812Y0158119D01*
X0005812Y0158917D02*
X0311436Y0158917D01*
X0311436Y0159716D02*
X0005812Y0159716D01*
X0005812Y0160514D02*
X0311436Y0160514D01*
X0311436Y0161313D02*
X0005812Y0161313D01*
D16*
X0088873Y0104900D02*
X0088873Y0090461D01*
X0120823Y0058511D01*
D17*
X0252925Y0059700D03*
X0277612Y0059700D03*
X0283312Y0111600D03*
M02*
